<?xml version="1.0" encoding="utf-8"?>
<!-- Generator: Adobe Illustrator 25.2.0, SVG Export Plug-In . SVG Version: 6.00 Build 0)  -->
<svg version="1.1" id="Layer_1" xmlns="http://www.w3.org/2000/svg" xmlns:xlink="http://www.w3.org/1999/xlink" x="0px" y="0px"
	 viewBox="0 0 145.56 35.76" style="enable-background:new 0 0 145.56 35.76;" xml:space="preserve">
<style type="text/css">
	.st0{fill:#074377;}
	.st1{fill:#F20D38;}
	.st2{fill:#004679;}
</style>
<g>
	<g>
		<path class="st0" d="M10.97,27.95c-3.47,0-6.46-1.02-8.97-3.05l2.68-2.93c1.68,1.56,3.81,2.34,6.38,2.34
			c2.36,0,3.54-0.66,3.54-1.97c0-0.65-0.33-1.16-0.99-1.53c-0.66-0.37-1.92-0.75-3.76-1.14c-1.44-0.32-2.68-0.71-3.72-1.19
			c-1.05-0.48-1.86-1.1-2.43-1.89c-0.57-0.78-0.86-1.69-0.86-2.73c0-1.65,0.67-3.02,2-4.13s3.13-1.66,5.4-1.66
			c3.14,0,5.76,0.81,7.84,2.42l-2.36,3.13c-1.53-1.36-3.33-2.03-5.4-2.03c-1.11,0-1.92,0.19-2.44,0.57
			c-0.52,0.38-0.77,0.84-0.77,1.39c0,0.77,0.37,1.31,1.1,1.64c0.73,0.33,2,0.7,3.82,1.12c2.17,0.49,3.83,1.18,4.99,2.06
			c1.16,0.88,1.74,2.14,1.74,3.76c0,1.82-0.72,3.25-2.17,4.29C15.11,27.43,13.25,27.95,10.97,27.95z"/>
		<path class="st1" d="M22.69,8.53h17.04v3.79H22.69V8.53z M26.49,19.89v3.79h13.25v3.79H22.69V16.12h15.15v3.78H26.49z"/>
		<path class="st0" d="M48.14,21.79v5.68h-3.79V8.53h10.42c1.83,0,3.39,0.65,4.69,1.94c1.29,1.29,1.94,2.86,1.94,4.69
			c0,1.83-0.65,3.39-1.94,4.69c-1.29,1.29-2.86,1.94-4.69,1.94H48.14z M48.14,12.32V18h6.63c0.78,0,1.45-0.28,2.01-0.83
			s0.83-1.22,0.83-2.01c0-0.78-0.28-1.45-0.83-2.01c-0.55-0.55-1.22-0.83-2.01-0.83H48.14z"/>
		<path class="st0" d="M69.16,12.32v15.15h-3.79V8.53h10.42c1.83,0,3.39,0.65,4.69,1.94c1.29,1.29,1.94,2.86,1.94,4.69
			c0,1.45-0.41,2.74-1.24,3.87c-0.83,1.13-1.91,1.92-3.24,2.39l6.05,6.05h-5.36L72,20.84V18h3.79c0.78,0,1.45-0.28,2.01-0.83
			s0.83-1.22,0.83-2.01c0-0.78-0.28-1.45-0.83-2.01c-0.55-0.55-1.22-0.83-2.01-0.83H69.16z"/>
		<path class="st0" d="M95.41,8.53h2.32l9.47,18.94h-3.41l-11.56-4.44l-2.27,4.44h-4.25L95.41,8.53z M96.55,14.62l-2.56,5.02
			l6.29,2.42L96.55,14.62z"/>
	</g>
	<g>
		<g>
			<path class="st2" d="M85.25,30.54v0.58h1.36c0.03,0,0.06-0.01,0.07-0.02c0.02-0.01,0.03-0.04,0.04-0.08h0.05v0.55h-0.05
				c-0.01-0.04-0.02-0.06-0.04-0.08c-0.02-0.01-0.04-0.02-0.07-0.02h-1.93v-0.05c0.04-0.01,0.06-0.02,0.08-0.04
				c0.01-0.02,0.02-0.04,0.02-0.07v-1.79c0-0.03-0.01-0.06-0.02-0.07c-0.01-0.02-0.04-0.03-0.08-0.04v-0.05h1.89
				c0.03,0,0.05-0.01,0.07-0.02c0.02-0.01,0.03-0.04,0.04-0.08h0.05v0.55h-0.05c-0.01-0.04-0.02-0.06-0.04-0.08
				c-0.02-0.01-0.04-0.02-0.07-0.02h-1.33v0.5h0.86c0.03,0,0.06-0.01,0.07-0.02c0.02-0.01,0.03-0.04,0.04-0.08h0.05v0.54h-0.05
				c-0.01-0.04-0.02-0.06-0.04-0.08c-0.02-0.01-0.04-0.02-0.07-0.02H85.25z"/>
		</g>
		<g>
			<path class="st2" d="M88.38,30.37l0.64,0.82c0.07,0.09,0.12,0.15,0.15,0.17c0.03,0.02,0.07,0.04,0.13,0.05v0.05h-0.84v-0.05
				c0.06-0.01,0.09-0.04,0.09-0.08c0-0.02-0.02-0.06-0.06-0.11l-0.4-0.51l-0.4,0.5c-0.04,0.06-0.06,0.09-0.06,0.12
				c0,0.05,0.03,0.08,0.1,0.09v0.05h-0.81v-0.05c0.05-0.01,0.08-0.02,0.11-0.04c0.03-0.02,0.08-0.08,0.16-0.18l0.65-0.81l-0.6-0.77
				c-0.08-0.1-0.13-0.16-0.15-0.18c-0.03-0.02-0.07-0.03-0.12-0.04l0-0.05h0.85v0.05c-0.06,0.02-0.09,0.05-0.09,0.09
				c0,0.02,0.02,0.07,0.07,0.12l0.33,0.42l0.34-0.42c0.05-0.06,0.07-0.11,0.07-0.13c0-0.05-0.04-0.07-0.11-0.09v-0.05h0.83v0.05
				c-0.05,0.01-0.09,0.02-0.11,0.03c-0.02,0.02-0.08,0.08-0.16,0.19L88.38,30.37z"/>
		</g>
		<g>
			<path class="st2" d="M89.6,31.31v-1.8c0-0.03-0.01-0.05-0.02-0.07c-0.01-0.02-0.04-0.03-0.08-0.04v-0.05h0.66v0.05
				c-0.04,0.01-0.06,0.02-0.08,0.04c-0.01,0.02-0.02,0.04-0.02,0.07v1.8c0,0.03,0.01,0.06,0.02,0.07c0.01,0.02,0.04,0.03,0.08,0.04
				v0.05H89.5v-0.05c0.04-0.01,0.06-0.02,0.08-0.04C89.59,31.36,89.6,31.34,89.6,31.31z"/>
		</g>
		<g>
			<path class="st2" d="M91.85,31.47L91.07,30v1.3c0,0.03,0.01,0.06,0.02,0.07c0.01,0.02,0.04,0.03,0.08,0.04v0.05h-0.62v-0.05
				c0.04-0.01,0.06-0.02,0.08-0.04c0.01-0.02,0.02-0.04,0.02-0.07v-1.8c0-0.03-0.01-0.05-0.02-0.07c-0.01-0.02-0.04-0.03-0.08-0.04
				v-0.05h0.82v0.05c-0.05,0.01-0.07,0.04-0.07,0.09c0,0.02,0.01,0.04,0.02,0.07l0.58,1.1l0.59-1.08c0.03-0.05,0.04-0.08,0.04-0.1
				c0-0.04-0.03-0.07-0.08-0.07v-0.05h0.8v0.05c-0.04,0.01-0.06,0.02-0.08,0.04c-0.01,0.02-0.02,0.04-0.02,0.07v1.8
				c0,0.03,0.01,0.06,0.02,0.07c0.01,0.02,0.04,0.03,0.08,0.04v0.05h-0.66v-0.05c0.04-0.01,0.06-0.02,0.08-0.04
				c0.01-0.02,0.02-0.04,0.02-0.07V30L91.85,31.47z"/>
		</g>
		<g>
			<path class="st2" d="M94.98,30.61v0.7c0,0.03,0.01,0.06,0.02,0.07c0.01,0.02,0.04,0.03,0.08,0.04v0.05h-0.66v-0.05
				c0.04-0.01,0.06-0.02,0.08-0.04c0.01-0.02,0.02-0.04,0.02-0.07v-1.8c0-0.03-0.01-0.06-0.02-0.07c-0.01-0.02-0.04-0.03-0.08-0.04
				v-0.05h1.32c0.15,0,0.28,0.01,0.37,0.03c0.09,0.02,0.17,0.06,0.24,0.11c0.07,0.05,0.13,0.12,0.17,0.21
				c0.04,0.09,0.06,0.18,0.06,0.28c0,0.14-0.04,0.27-0.12,0.38c-0.07,0.09-0.15,0.16-0.26,0.2c-0.11,0.04-0.26,0.06-0.46,0.06H94.98
				z M94.98,30.26h0.71c0.14,0,0.24-0.01,0.3-0.04c0.04-0.02,0.07-0.05,0.09-0.09c0.02-0.04,0.03-0.09,0.03-0.14
				c0-0.05-0.01-0.1-0.03-0.14c-0.02-0.04-0.05-0.07-0.09-0.09c-0.06-0.03-0.15-0.04-0.3-0.04h-0.71V30.26z"/>
		</g>
		<g>
			<path class="st2" d="M97.9,30.85l0.56-1.25c0.02-0.05,0.04-0.09,0.04-0.12c0-0.04-0.03-0.07-0.1-0.09v-0.05h0.73v0.05
				c-0.05,0.01-0.08,0.02-0.09,0.04c-0.02,0.02-0.05,0.08-0.09,0.17L98.2,31.2c-0.03,0.07-0.05,0.11-0.05,0.13
				c0,0.05,0.03,0.08,0.1,0.09v0.05h-0.73v-0.05c0.07-0.01,0.1-0.04,0.1-0.09c0-0.02-0.02-0.06-0.05-0.13l-0.74-1.59
				c-0.04-0.09-0.07-0.15-0.09-0.17c-0.02-0.02-0.05-0.03-0.1-0.04v-0.05h0.75v0.05c-0.07,0.01-0.1,0.04-0.1,0.09
				c0,0.03,0.01,0.07,0.04,0.12L97.9,30.85z"/>
		</g>
		<g>
			<path class="st2" d="M100.54,29.7v1.61c0,0.03,0.01,0.06,0.02,0.07c0.01,0.02,0.04,0.03,0.08,0.04v0.05h-0.66v-0.05
				c0.04-0.01,0.06-0.02,0.08-0.04s0.02-0.04,0.02-0.07V29.7h-0.66c-0.03,0-0.06,0.01-0.07,0.02c-0.02,0.01-0.03,0.04-0.04,0.08
				h-0.05v-0.55h0.05c0.01,0.04,0.03,0.06,0.04,0.08s0.04,0.02,0.07,0.02h1.78c0.03,0,0.06-0.01,0.07-0.02
				c0.02-0.01,0.03-0.04,0.04-0.08h0.05v0.55h-0.05c-0.01-0.04-0.02-0.06-0.04-0.08c-0.02-0.01-0.04-0.02-0.07-0.02H100.54z"/>
		</g>
		<g>
			<path class="st2" d="M102.93,31.12h1.3c0.03,0,0.06-0.01,0.07-0.02c0.02-0.01,0.03-0.04,0.04-0.08h0.05v0.55h-0.05
				c-0.01-0.04-0.02-0.06-0.04-0.08c-0.02-0.01-0.04-0.02-0.07-0.02h-1.87v-0.05c0.04-0.01,0.06-0.02,0.08-0.04
				c0.01-0.02,0.02-0.04,0.02-0.07v-1.79c0-0.03-0.01-0.06-0.02-0.07c-0.01-0.02-0.04-0.03-0.08-0.04v-0.05h0.66v0.05
				c-0.04,0.01-0.06,0.02-0.08,0.04c-0.01,0.02-0.02,0.04-0.02,0.07V31.12z"/>
		</g>
		<g>
			<path class="st2" d="M105.49,29.7v1.61c0,0.03,0.01,0.06,0.02,0.07c0.01,0.02,0.04,0.03,0.08,0.04v0.05h-0.66v-0.05
				c0.04-0.01,0.06-0.02,0.08-0.04s0.02-0.04,0.02-0.07V29.7h-0.66c-0.03,0-0.06,0.01-0.07,0.02c-0.02,0.01-0.03,0.04-0.04,0.08
				h-0.05v-0.55h0.05c0.01,0.04,0.03,0.06,0.04,0.08s0.04,0.02,0.07,0.02h1.78c0.03,0,0.06-0.01,0.07-0.02
				c0.02-0.01,0.03-0.04,0.04-0.08h0.05v0.55h-0.05c-0.01-0.04-0.02-0.06-0.04-0.08c-0.02-0.01-0.04-0.02-0.07-0.02H105.49z"/>
		</g>
		<g>
			<path class="st2" d="M106.62,31.31v-1.79c0-0.03-0.01-0.06-0.02-0.07c-0.01-0.02-0.04-0.03-0.08-0.04v-0.05h1.18
				c0.26,0,0.46,0.03,0.6,0.09c0.2,0.09,0.35,0.23,0.44,0.43c0.08,0.15,0.11,0.34,0.11,0.55c0,0.37-0.11,0.64-0.34,0.84
				c-0.09,0.08-0.2,0.14-0.33,0.17c-0.13,0.03-0.29,0.05-0.48,0.05h-1.18v-0.05c0.04-0.01,0.06-0.02,0.08-0.04
				C106.61,31.36,106.62,31.34,106.62,31.31z M107.08,31.12h0.58c0.19,0,0.33-0.03,0.42-0.08c0.2-0.11,0.3-0.32,0.3-0.64
				c0-0.23-0.05-0.4-0.16-0.52c-0.06-0.07-0.13-0.12-0.22-0.14c-0.08-0.03-0.2-0.04-0.34-0.04h-0.58V31.12z"/>
		</g>
	</g>
	<g>
		<g>
			<path class="st1" d="M22.99,5.44v0.82h-0.43V4.22h0.9c0.44,0,0.68,0.25,0.68,0.56c0,0.27-0.15,0.42-0.3,0.48
				c0.1,0.04,0.25,0.14,0.25,0.51v0.1c0,0.14,0,0.29,0.03,0.39h-0.42c-0.04-0.09-0.04-0.24-0.04-0.46V5.77
				c0-0.22-0.06-0.33-0.39-0.33H22.99z M22.99,5.09h0.37c0.24,0,0.33-0.09,0.33-0.26c0-0.17-0.11-0.26-0.32-0.26h-0.38V5.09z"/>
		</g>
		<g>
			<path class="st1" d="M26.41,5.23c0,0.57-0.34,1.06-1,1.06c-0.64,0-0.98-0.47-0.98-1.05c0-0.59,0.37-1.05,1-1.05
				C26.03,4.19,26.41,4.61,26.41,5.23z M24.88,5.23c0,0.4,0.17,0.7,0.54,0.7c0.39,0,0.53-0.33,0.53-0.69c0-0.39-0.16-0.69-0.54-0.69
				C25.04,4.55,24.88,4.83,24.88,5.23z"/>
		</g>
		<g>
			<path class="st1" d="M28.67,5.23c0,0.57-0.34,1.06-1,1.06c-0.64,0-0.98-0.47-0.98-1.05c0-0.59,0.37-1.05,1-1.05
				C28.29,4.19,28.67,4.61,28.67,5.23z M27.15,5.23c0,0.4,0.17,0.7,0.54,0.7c0.39,0,0.53-0.33,0.53-0.69c0-0.39-0.16-0.69-0.54-0.69
				C27.31,4.55,27.15,4.83,27.15,5.23z"/>
		</g>
		<g>
			<path class="st1" d="M29.42,4.58H28.8V4.22h1.68v0.36h-0.62v1.68h-0.44V4.58z"/>
		</g>
		<g>
			<path class="st1" d="M32.16,5.38h-0.98V5.9h1.08l-0.05,0.36h-1.45V4.22h1.45v0.36h-1.02v0.44h0.98V5.38z"/>
		</g>
		<g>
			<path class="st1" d="M32.58,4.22h0.81c0.59,0,0.98,0.39,0.98,0.99c0,0.6-0.38,1.05-1,1.05h-0.79V4.22z M33.02,5.9h0.33
				c0.39,0,0.56-0.29,0.56-0.69c0-0.33-0.16-0.64-0.56-0.64h-0.33V5.9z"/>
		</g>
		<g>
			<path class="st1" d="M35.8,6.26l-0.52-2.04h0.47c0.19,0.94,0.28,1.35,0.3,1.58h0c0.08-0.37,0.27-1.08,0.39-1.58h0.4
				c0.1,0.39,0.31,1.18,0.38,1.56h0c0.07-0.45,0.27-1.24,0.34-1.56h0.43l-0.55,2.04h-0.46c-0.11-0.45-0.29-1.11-0.36-1.46h0
				c-0.07,0.36-0.26,1.05-0.37,1.46H35.8z"/>
		</g>
		<g>
			<path class="st1" d="M38.7,4.22v2.04h-0.44V4.22H38.7z"/>
		</g>
		<g>
			<path class="st1" d="M39.62,4.58H39V4.22h1.68v0.36h-0.62v1.68h-0.44V4.58z"/>
		</g>
		<g>
			<path class="st1" d="M40.95,4.22h0.44v0.8h0.82v-0.8h0.44v2.04h-0.44V5.38h-0.82v0.88h-0.44V4.22z"/>
		</g>
		<g>
			<path class="st1" d="M45.26,5.38h-0.98V5.9h1.08l-0.05,0.36h-1.45V4.22h1.45v0.36h-1.02v0.44h0.98V5.38z"/>
		</g>
		<g>
			<path class="st1" d="M45.68,4.22h1.42v0.36h-0.99v0.5h0.93v0.36h-0.93v0.82h-0.43V4.22z"/>
		</g>
		<g>
			<path class="st1" d="M47.43,4.22h1.42v0.36h-0.99v0.5h0.93v0.36h-0.93v0.82h-0.43V4.22z"/>
		</g>
		<g>
			<path class="st1" d="M49.62,4.22v2.04h-0.44V4.22H49.62z"/>
		</g>
		<g>
			<path class="st1" d="M51.84,5.63c-0.08,0.38-0.37,0.66-0.88,0.66c-0.65,0-0.95-0.46-0.95-1.04c0-0.56,0.32-1.06,0.97-1.06
				c0.54,0,0.81,0.32,0.86,0.66H51.4c-0.04-0.16-0.15-0.31-0.43-0.31c-0.36,0-0.5,0.33-0.5,0.7c0,0.34,0.12,0.71,0.52,0.71
				c0.29,0,0.38-0.19,0.42-0.31H51.84z"/>
		</g>
		<g>
			<path class="st1" d="M52.62,4.22v2.04h-0.44V4.22H52.62z"/>
		</g>
		<g>
			<path class="st1" d="M54.51,5.38h-0.98V5.9h1.08l-0.05,0.36h-1.45V4.22h1.45v0.36h-1.02v0.44h0.98V5.38z"/>
		</g>
		<g>
			<path class="st1" d="M54.93,6.26V4.22h0.55c0.25,0.46,0.73,1.28,0.82,1.51h0.01c-0.02-0.21-0.02-0.57-0.02-0.9v-0.6h0.4v2.04
				h-0.52c-0.22-0.4-0.74-1.35-0.84-1.58h-0.01c0.01,0.18,0.02,0.6,0.02,0.96v0.62H54.93z"/>
		</g>
		<g>
			<path class="st1" d="M58.9,5.63c-0.08,0.38-0.37,0.66-0.88,0.66c-0.65,0-0.95-0.46-0.95-1.04c0-0.56,0.32-1.06,0.97-1.06
				c0.54,0,0.81,0.32,0.86,0.66h-0.44c-0.04-0.16-0.15-0.31-0.43-0.31c-0.36,0-0.5,0.33-0.5,0.7c0,0.34,0.12,0.71,0.52,0.71
				c0.29,0,0.38-0.19,0.42-0.31H58.9z"/>
		</g>
		<g>
			<path class="st1" d="M59.72,6.26V5.54c0-0.02,0-0.04-0.02-0.07L59,4.22h0.5c0.16,0.31,0.36,0.72,0.46,0.94
				c0.09-0.21,0.31-0.64,0.47-0.94h0.46l-0.71,1.25c-0.01,0.01-0.02,0.02-0.02,0.07v0.73H59.72z"/>
		</g>
	</g>
	<g>
		<path class="st2" d="M111.14,27.48c-1.07,0-1.94-0.87-1.94-1.94s0.87-1.94,1.94-1.94c1.07,0,1.94,0.87,1.94,1.94
			S112.21,27.48,111.14,27.48z M111.14,23.87c-0.92,0-1.67,0.75-1.67,1.67c0,0.92,0.75,1.67,1.67,1.67c0.92,0,1.67-0.75,1.67-1.67
			C112.81,24.62,112.06,23.87,111.14,23.87z"/>
	</g>
	<g>
		<g>
			<path class="st2" d="M110.43,24.3c0.16-0.03,0.39-0.05,0.61-0.05c0.34,0,0.55,0.06,0.71,0.2c0.12,0.11,0.19,0.27,0.19,0.46
				c0,0.32-0.2,0.54-0.46,0.62v0.01c0.19,0.07,0.3,0.24,0.36,0.49c0.08,0.34,0.14,0.58,0.19,0.67h-0.33
				c-0.04-0.07-0.09-0.28-0.16-0.58c-0.07-0.34-0.2-0.46-0.49-0.47h-0.3v1.06h-0.32V24.3z M110.74,25.41h0.32
				c0.34,0,0.55-0.19,0.55-0.46c0-0.32-0.23-0.45-0.56-0.46c-0.15,0-0.26,0.01-0.31,0.03V25.41z"/>
		</g>
	</g>
</g>
</svg>
